<?xml version="1.0" encoding="utf-8"?>
<!-- Generator: Adobe Illustrator 22.1.0, SVG Export Plug-In . SVG Version: 6.00 Build 0)  -->
<svg version="1.1" xmlns="http://www.w3.org/2000/svg" xmlns:xlink="http://www.w3.org/1999/xlink" x="0px" y="0px" width="700px"
	 height="630px" viewBox="0 0 700 630" style="enable-background:new 0 0 700 630;" xml:space="preserve">
<g id="Layer_1">
	<g id="Layer_3">
	</g>
	
		<linearGradient id="SVGID_1_" gradientUnits="userSpaceOnUse" x1="3.3859" y1="316.4139" x2="700.3" y2="316.4139" gradientTransform="matrix(1 0 0 -1 0 632)">
		<stop  offset="0" style="stop-color:#FF6822"/>
		<stop  offset="0.7617" style="stop-color:#FFBA01"/>
	</linearGradient>
	<path style="opacity:0.1246;fill:url(#SVGID_1_);enable-background:new    ;" d="M700,610c-77.5,22.8-170.7,21.6-230.9-16.5
		c-25.7-16.2-48.9-37.3-78-46.7c-63.8-20.5-142,19.7-197.6-17.1c-48-31.8-49.1-102.5-88.1-144.5c-16.9-18.2-48.2-31.7-64.6-46.5
		C-1.3,300.4-23.9,222,61.9,157.4c57.1-42.9,161.3-21.2,232-57.5C419.3,35.4,425.8-12.3,626.9,13l73.4,22.8"/>
	<line style="fill:none;" x1="699.6" y1="30.6" x2="699.8" y2="590.9"/>
	
		<linearGradient id="SVGID_2_" gradientUnits="userSpaceOnUse" x1="59.0602" y1="-416.1607" x2="-43.5443" y2="-1001.8473" gradientTransform="matrix(0.985 -0.1726 -0.1726 -0.985 233.9117 -390.5762)">
		<stop  offset="0" style="stop-color:#FFF014"/>
		<stop  offset="7.888030e-02" style="stop-color:#FFE315"/>
		<stop  offset="0.8147" style="stop-color:#FF6822"/>
	</linearGradient>
	<path style="fill:url(#SVGID_2_);" d="M700,590.9c-73.3,21.4-158.1,17.1-218.6-20.7c-25.7-16.1-48.9-37-78-46.2
		c-63.9-20.2-142.3,19.8-197.9-16.7c-48-31.5-49-101.6-88-143.2c-16.9-18-45.8-36.4-56.4-43.7c-56-38.4-47.6-153.1,74.1-191.8
		c73.2-23.3,117.2-11.7,171.9-38.1C373.2,58.8,450.6-13.3,642,16c21.3,3.7,39.9,8.7,58,14.7V590.9z"/>
	
		<linearGradient id="SVGID_3_" gradientUnits="userSpaceOnUse" x1="289.7044" y1="-562.9595" x2="25.5752" y2="-878.4625" gradientTransform="matrix(0.985 -0.1726 -0.1726 -0.985 233.9117 -390.5762)">
		<stop  offset="0" style="stop-color:#FFFFFF"/>
		<stop  offset="0.3352" style="stop-color:#FFE79C"/>
		<stop  offset="0.7617" style="stop-color:#FFCA22"/>
	</linearGradient>
	<path style="opacity:0.1;fill:url(#SVGID_3_);enable-background:new    ;" d="M699.9,540.4c-30.2,4.8-61.2,1.2-88.9-10.2
		c-50.5-20.9-84.5-65-129.4-94.9c-34.3-22.8-75.2-37-117.6-40.9c-27.7-2.5-56-0.8-83-6.5c-38.4-8.1-73.4-33.5-84.5-68.6
		s6.5-78.5,43-93.8c30.7-12.9,66.3-4.9,99-11.7c27.8-5.8,51.5-21.8,72.2-39.5c18.6-15.9,29.8-32.6,56.9-36.7
		c20.1-3,40.9,1.4,58.5,10.3c21.6,10.9,40.1,28.7,64.6,32.1c33.4,4.7,59.5-22,91.3-20.5c3,0.1,14.9,1.7,17.7,2.5v378.2"/>
	<path id="Color1_17_" style="fill:#FCAA06;" d="M523,539.6L523,539.6c0-2.7,2.2-4.9,4.9-4.9h24.6c2.7,0,4.9,2.2,4.9,4.9l0,0
		c0,2.7-2.2,4.9-4.9,4.9h-0.2c-1.6,0-2.9,1.3-2.9,2.9v0.2c0,1.6,1.3,2.9,2.9,2.9h6.9c1.6,0,2.9,1.3,2.9,2.9v0.2
		c0,1.6-1.3,2.9-2.9,2.9h-19.7c-1.6,0-2.9-1.3-2.9-2.9v-0.2c0-1.6,1.3-2.9,2.9-2.9l0,0c1.6,0,2.9-1.3,2.9-2.9v-0.2
		c0-1.6-1.3-2.9-2.9-2.9H528C525.2,544.5,523,542.3,523,539.6z"/>
	<path id="Color1_16_" style="fill:#FCAA06;" d="M516.5,408h-3.9v-3.9c0-0.9-0.7-1.6-1.6-1.6s-1.6,0.7-1.6,1.6v3.9h-3.9
		c-0.9,0-1.6,0.7-1.6,1.6s0.7,1.6,1.6,1.6h3.9v3.9c0,0.9,0.7,1.6,1.6,1.6s1.6-0.7,1.6-1.6v-3.9h3.9c0.9,0,1.6-0.7,1.6-1.6
		S517.4,408,516.5,408z"/>
	<path id="Color1_15_" style="fill:#FCAA06;" d="M347.9,158.5H344v-3.9c0-0.9-0.7-1.6-1.6-1.6s-1.6,0.7-1.6,1.6v3.9H337
		c-0.9,0-1.6,0.7-1.6,1.6c0,0.9,0.7,1.6,1.6,1.6h3.9v3.9c0,0.9,0.7,1.6,1.6,1.6s1.6-0.7,1.6-1.6v-3.9h3.9c0.9,0,1.6-0.7,1.6-1.6
		C349.5,159.2,348.8,158.5,347.9,158.5z"/>
	<path id="Color1_14_" style="fill:#FCAA06;" d="M649.1,116.7h-3.9v-3.9c0-0.9-0.7-1.6-1.6-1.6c-0.9,0-1.6,0.7-1.6,1.6v3.9h-3.9
		c-0.9,0-1.6,0.7-1.6,1.6s0.7,1.6,1.6,1.6h3.9v3.9c0,0.9,0.7,1.6,1.6,1.6c0.9,0,1.6-0.7,1.6-1.6v-3.9h3.9c0.9,0,1.6-0.7,1.6-1.6
		C650.6,117.4,649.9,116.7,649.1,116.7z"/>
	<path id="Color1_13_" style="fill:#FCAA06;" d="M164.4,331.5h-3.9v-3.9c0-0.9-0.7-1.6-1.6-1.6c-0.9,0-1.6,0.7-1.6,1.6v3.9h-3.9
		c-0.9,0-1.6,0.7-1.6,1.6s0.7,1.6,1.6,1.6h3.9v3.9c0,0.9,0.7,1.6,1.6,1.6c0.9,0,1.6-0.7,1.6-1.6v-3.9h3.9c0.9,0,1.6-0.7,1.6-1.6
		S165.3,331.5,164.4,331.5z"/>
	<path id="Color1_12_" style="opacity:0.4;fill:#F28A00;enable-background:new    ;" d="M621.8,139.4L621.8,139.4
		c0,2.7-2.2,4.9-4.9,4.9h-24.6c-2.7,0-4.9-2.2-4.9-4.9l0,0c0-2.7,2.2-4.9,4.9-4.9h0.2c1.6,0,2.9-1.3,2.9-2.9v-0.2
		c0-1.6-1.3-2.9-2.9-2.9h-6.9c-1.6,0-2.9-1.3-2.9-2.9v-0.2c0-1.6,1.3-2.9,2.9-2.9h19.7c1.6,0,2.9,1.3,2.9,2.9v0.2
		c0,1.6-1.3,2.9-2.9,2.9l0,0c-1.6,0-2.9,1.3-2.9,2.9v0.2c0,1.6,1.3,2.9,2.9,2.9H617C619.7,134.5,621.8,136.7,621.8,139.4z"/>
	<path id="Color1_11_" style="fill:#FF9D00;" d="M219.8,169.5L219.8,169.5c0,2.7-2.2,4.9-4.9,4.9h-24.6c-2.7,0-4.9-2.2-4.9-4.9l0,0
		c0-2.7,2.2-4.9,4.9-4.9h0.2c1.6,0,2.9-1.3,2.9-2.9v-0.2c0-1.6-1.3-2.9-2.9-2.9h-6.9c-1.6,0-2.9-1.3-2.9-2.9v-0.2
		c0-1.6,1.3-2.9,2.9-2.9h19.7c1.6,0,2.9,1.3,2.9,2.9v0.2c0,1.6-1.3,2.9-2.9,2.9l0,0c-1.6,0-2.9,1.3-2.9,2.9v0.2
		c0,1.6,1.3,2.9,2.9,2.9h11.5C217.6,164.6,219.8,166.8,219.8,169.5z"/>
	<path id="Color1_10_" style="fill:#FCAA06;" d="M661.7,387.7L661.7,387.7c0,3.9-3.2,7.1-7.1,7.1h-35.5c-3.9,0-7.1-3.2-7.1-7.1l0,0
		c0-3.9,3.2-7.1,7.1-7.1h0.3c2.3,0,4.2-1.9,4.2-4.2v-0.3c0-2.3-1.9-4.2-4.2-4.2h-10c-2.3,0-4.2-1.9-4.2-4.2v-0.3
		c0-2.3,1.9-4.2,4.2-4.2h28.5c2.3,0,4.2,1.9,4.2,4.2v0.3c0,2.3-1.9,4.2-4.2,4.2l0,0c-2.3,0-4.2,1.9-4.2,4.2v0.3
		c0,2.3,1.9,4.2,4.2,4.2h16.7C658.5,380.6,661.7,383.8,661.7,387.7z"/>
	<path id="Color1_9_" style="fill:#FCAA06;" d="M672.3,502.5h-3.9v-3.9c0-0.9-0.7-1.6-1.6-1.6s-1.6,0.7-1.6,1.6v3.9h-3.9
		c-0.9,0-1.6,0.7-1.6,1.6s0.7,1.6,1.6,1.6h3.9v3.9c0,0.9,0.7,1.6,1.6,1.6s1.6-0.7,1.6-1.6v-3.9h3.9c0.9,0,1.6-0.7,1.6-1.6
		C673.9,503.2,673.2,502.5,672.3,502.5z"/>
	<path id="Color1_8_" style="fill:#FCAA06;" d="M481.3,185h-3.9v-3.9c0-0.9-0.7-1.6-1.6-1.6s-1.6,0.7-1.6,1.6v3.9h-3.9
		c-0.9,0-1.6,0.7-1.6,1.6s0.7,1.6,1.6,1.6h3.9v3.9c0,0.9,0.7,1.6,1.6,1.6s1.6-0.7,1.6-1.6v-3.9h3.9c0.9,0,1.6-0.7,1.6-1.6
		S482.1,185,481.3,185z"/>
	<path id="Color1_7_" style="fill:#FCAA06;" d="M522,138h-3.9v-3.9c0-0.9-0.7-1.6-1.6-1.6s-1.6,0.7-1.6,1.6v3.9H511
		c-0.9,0-1.6,0.7-1.6,1.6c0,0.9,0.7,1.6,1.6,1.6h3.9v3.9c0,0.9,0.7,1.6,1.6,1.6s1.6-0.7,1.6-1.6v-3.9h3.9c0.9,0,1.6-0.7,1.6-1.6
		S522.9,138,522,138z"/>
	<path id="Color1_6_" style="fill:#FCAA06;" d="M595.9,325.7H592v-3.9c0-0.9-0.7-1.6-1.6-1.6s-1.6,0.7-1.6,1.6v3.9h-3.9
		c-0.9,0-1.6,0.7-1.6,1.6s0.7,1.6,1.6,1.6h3.9v3.9c0,0.9,0.7,1.6,1.6,1.6s1.6-0.7,1.6-1.6v-3.9h3.9c0.9,0,1.6-0.7,1.6-1.6
		C597.5,326.4,596.8,325.7,595.9,325.7z"/>
	<path id="Color1_5_" style="fill:#F2D821;" d="M467.2,84.6c-3.5,0-6.6,1.4-8.9,3.8c0.8,0.8,1.5,1.5,2.3,2.3c1.7-1.7,4-2.8,6.6-2.8
		c5.1,0,9.1,4.1,9.1,9.1v0.1h3.2V97C479.6,90.1,474,84.6,467.2,84.6z"/>
	<polygon id="Color1_4_" style="fill:#F2D821;" points="482.2,96.3 478.1,100.4 473.9,96.3 	"/>
	<path id="Color6_6_" style="fill:#48BDD8;" d="M467.2,109c3.5,0,6.6-1.4,8.9-3.8c-0.8-0.8-1.5-1.5-2.3-2.3c-1.7,1.7-4,2.8-6.6,2.8
		c-5.1,0-9.1-4.1-9.1-9.1v-0.1h-3.2v0.1C454.8,103.5,460.3,109,467.2,109z"/>
	<polygon id="Color6_5_" style="fill:#48BDD8;" points="452.2,97.3 456.3,93.2 460.4,97.3 	"/>
	<g style="opacity:0.4;">
		<path style="fill:#F28A00;" d="M424.8,141.1c0,0.8-0.2,1.6-0.6,2.3c-1,1.7-2.3,3.1-3.7,4.4c-1.1,0.9-2.2,1.8-3.4,2.6
			c-0.3,0.2-0.6,0.2-0.9,0c-1.8-1.3-3.6-2.7-5.1-4.3c-0.8-0.9-1.5-1.8-2.1-2.8c-1.5-2.7,0.2-6.1,3.2-6.5c0.9-0.1,1.7,0,2.5,0.5
			c0.7,0.4,1.3,1,1.8,1.6c0.1,0.1,0.1,0.1,0.2,0c0.4-0.5,0.8-0.9,1.3-1.3c1.8-1.4,3.9-0.9,5.1,0.2
			C424.2,138.6,424.8,139.8,424.8,141.1z"/>
		<path style="fill:#F28A00;" d="M425.9,165.4v-4.8l6.9-9.3v-10.8c0-0.9-0.7-1.5-1.5-1.5c-0.9,0-1.5,0.7-1.5,1.5v7.7l-8.5,6.2
			c-2,1.4-3.2,3.7-3.3,6.2l-0.2,4.8L425.9,165.4L425.9,165.4z"/>
		<path style="fill:#F28A00;" d="M421.2,156.1l3.2-5.8c0.6-1.1,2.1-1.4,3.1-0.6l0,0c0.8,0.6,1,1.7,0.5,2.6l-3.5,6.3L421.2,156.1"/>
		<path style="fill:#F28A00;" d="M419.8,156l3.8-5.9c0.8-1,2.3-0.9,3.1,0l0,0c0.6,0.8,0.6,1.9,0,2.7l-3,6.3L419.8,156"/>
		<path style="fill:#F28A00;" d="M408,165.4h8.1l-0.2-4.8c-0.1-2.4-1.3-4.7-3.3-6.2l-8.5-6.2v-7.7c0-0.9-0.7-1.5-1.5-1.5
			c-0.9,0-1.5,0.7-1.5,1.5v10.8l6.9,9.3V165.4z"/>
		<path style="fill:#F28A00;" d="M412.7,156.1l-3.2-5.8c-0.6-1.1-2.1-1.4-3.1-0.6l0,0c-0.8,0.6-1,1.7-0.5,2.6l3.5,6.3L412.7,156.1"
			/>
		<path style="fill:#F28A00;" d="M414.1,156l-3.8-5.9c-0.8-1-2.3-0.9-3.1,0l0,0c-0.6,0.8-0.6,1.9,0,2.7l3,6.3L414.1,156"/>
	</g>
	<g>
		<path style="fill:#6CC395;" d="M563.3,179.6h-25.8c-3.3,0-6,2.7-6,6v14.6c0,3.3,2.7,6,6,6h3.2v7.2l7.2-7.2h15.5c3.3,0,6-2.7,6-6
			v-14.6C569.3,182.3,566.6,179.6,563.3,179.6z"/>
		<circle style="fill:#FFFFFF;" cx="540.7" cy="192.9" r="2"/>
		<circle style="fill:#FFFFFF;" cx="549.9" cy="192.9" r="2"/>
		<circle style="fill:#FFFFFF;" cx="559.1" cy="192.9" r="2"/>
		<circle style="fill:#E66B74;" cx="568.3" cy="181.7" r="7.2"/>
		<rect x="567.3" y="178.6" style="fill:#F8FAFB;" width="2" height="6.1"/>
	</g>
	<g>
		<g id="Color9_1_">
			<path style="fill:#394C66;" d="M672.8,209.8h-22.1c-3.4,0-6.1-2.7-6.1-6.1V194c0-3.4,2.7-6.1,6.1-6.1h22.1c3.4,0,6.1,2.7,6.1,6.1
				v9.7C678.8,207,676.1,209.8,672.8,209.8z"/>
		</g>
		<path id="Color6_4_" style="fill:#FF9D00;" d="M678.5,188.1L663.6,203c-1.1,1.1-2.8,1.1-3.8,0l-14.9-14.9
			c-0.2,0.2-0.3,0.4-0.3,0.6v20.2c0,0.5,0.4,0.8,0.8,0.8H678c0.5,0,0.8-0.4,0.8-0.8v-20.2C678.8,188.5,678.7,188.2,678.5,188.1z"/>
		<g id="Color10_5_" style="opacity:0.2;">
			<path d="M678.8,188.7c0-0.3-0.1-0.5-0.3-0.6L663.6,203c-1.1,1.1-2.8,1.1-3.8,0l-14.9-14.9c-0.2,0.2-0.3,0.4-0.3,0.6v0.4
				l15.1,15.1c1.1,1.1,2.9,1.1,4.1,0l15.1-15.1L678.8,188.7L678.8,188.7z"/>
		</g>
		<path id="Color6_3_" style="fill:#FF9D00;" d="M678.7,209.4l-15-15c-1.1-1.1-2.8-1.1-3.8,0l-15,15c0.2,0.2,0.4,0.3,0.7,0.3H678
			C678.3,209.8,678.5,209.6,678.7,209.4z"/>
		<path id="Color10_4_" style="fill:#FF9D00;" d="M678.7,209.4l-15-15c-1.1-1.1-2.8-1.1-3.8,0l-15,15c0.2,0.2,0.4,0.3,0.7,0.3H678
			C678.3,209.8,678.5,209.6,678.7,209.4z"/>
		<path id="Color10_3_" style="opacity:0.2;enable-background:new    ;" d="M678.7,209.4l-15-15c-1.1-1.1-2.8-1.1-3.8,0l-15,15
			c0.2,0.2,0.4,0.3,0.7,0.3H678C678.3,209.8,678.5,209.6,678.7,209.4z"/>
		<path id="Color6_2_" style="fill:#FF9D00;" d="M644.8,188.2l15,15c1.1,1.1,2.8,1.1,3.8,0l15-15c-0.2-0.2-0.4-0.3-0.7-0.3h-32.5
			C645.2,187.9,644.9,188,644.8,188.2z"/>
	</g>
	<path id="Color1_3_" style="fill:#459CCB;" d="M605,260.8c0,0,0.7,0.1,1.5,0.2v-0.3v-0.4l-5.4-1.3c-0.1,0.5-0.1,1-0.2,1.5
		c-0.1,2.6,0.7,4.9,2.2,6.8c1.5,1.8,3.6,3,6.3,3.4c0.1,0,0.2,0,0.3,0c-1.5-2.4-2.5-5.3-2.4-9c-0.7,0.3-1.3,0.6-1.3,0.6L605,260.8
		L605,260.8z M620.9,278.3h-2.7h-0.3h-2.7c-0.7,2.9-1.9,4.9-5.1,7.2v1.5l7.7,0.1h0.3l7.7,0.1v-1.5
		C622.6,283.2,621.5,281.2,620.9,278.3L620.9,278.3z M619,278.9c0.2,0,0.4,0,0.6,0c0.8,2.8,2.3,5,4.2,6.5c-0.9,0-1.8,0-2.7,0
		C619.7,283.3,619.1,281.2,619,278.9L619,278.9z M622.8,275.1c0.6,0.7,0.5,1.5,0,2.2l-4.2-0.1l0,0l0,0l0,0l0,0l0,0l0,0l0,0l0,0l0,0
		l0,0l0,0l0,0l0,0l0,0l0,0l0,0l0,0l0,0l0,0l0,0l0,0l0,0l0,0l0,0l0,0l0,0l0,0l-4.2-0.1c-0.5-0.8-0.6-1.5,0-2.2h0.6
		c-0.8-0.5-1.6-1.2-2.3-1.9l-0.1,0.6l-2.1-0.3l0.2-1.1c-0.2,0-0.4,0-0.6-0.1c-3.3-0.5-6-2-7.7-4.2c-1.7-2.1-2.6-4.8-2.5-7.7
		c0.1-0.9,0.2-1.8,0.4-2.6l0.2-0.9l1.1,0.3l7.4,1.8l0.7,0.2v0.6l9.1,0.2h1.2l9.1,0.2v-0.6l0.7-0.2l7.4-1.6l1.1-0.2l0.2,0.9
		c0.2,0.9,0.3,1.8,0.3,2.6c0,2.9-1,5.6-2.8,7.6c-1.8,2.1-4.6,3.5-7.9,3.9c-0.2,0-0.4,0-0.6,0.1l0.2,1.1l-2.1,0.2l-0.1-0.6
		c-0.8,0.7-1.6,1.3-2.4,1.9L622.8,275.1L622.8,275.1z M630.6,262.7c0,0-0.7-0.3-1.3-0.6c-0.1,3.7-1.2,6.6-2.7,8.9c0.1,0,0.2,0,0.3,0
		c2.7-0.3,4.9-1.5,6.4-3.2c1.6-1.8,2.4-4.1,2.4-6.7c0-0.5,0-1-0.1-1.5l-5.4,1.1v0.4v0.3c0.8-0.1,1.5-0.2,1.5-0.2L630.6,262.7
		L630.6,262.7z M609.5,261.2c1.1,0,2.3,0.1,3.4,0.1c0.2,4,1.1,8.1,2.6,12.2c-0.3,0-0.6,0-0.9,0C612,270.6,610,266.8,609.5,261.2z"/>
	<g>
		<g>
			<polygon style="fill:#6CC395;" points="679.4,311.5 666.4,325.2 670.4,325.2 670.4,325.2 679.4,315.7 688.5,325.2 688.5,325.2 
				692.4,325.2 			"/>
			<polygon style="fill:#F2D821;" points="671.1,326.5 671.1,335.8 676.7,335.8 676.7,329.7 682.1,329.7 682.1,335.8 687.7,335.8 
				687.7,326.5 679.4,317.8 			"/>
		</g>
	</g>
	<g>
		<path id="Color6_1_" style="fill:#F2D821;" d="M527.6,381.5l11.3-8.9l-2.9-5.7c1.7-2.3,3.1-4.8,4.1-7.4l6.3-0.6l1.8-14.3l-6.1-1.8
			c-0.4-2.8-1.2-5.5-2.3-8.2l4.3-4.8l-8.9-11.3l-5.7,3c-2.3-1.7-4.8-3.1-7.4-4.1l-0.2-6.3l-14.4-1.7l-2.1,6
			c-2.8,0.4-5.5,1.2-8.2,2.3l-4.9-4l-10.9,8.7l2.6,5.7c-1.7,2.3-3.1,4.8-4.1,7.4l-6.5,0.6l-1.5,13.6l6,2.5c0.4,2.8,1.2,5.5,2.3,8.2
			l-3.9,5.1l8.5,10.9l5.7-2.9c2.3,1.7,4.8,3.1,7.4,4.1l0.5,6.4l13.8,1.8l2.2-6.3c2.8-0.4,5.5-1.2,8.2-2.3L527.6,381.5z M502.1,353.8
			c-3.5-4.4-2.7-10.8,1.7-14.3c4.4-3.5,10.8-2.7,14.3,1.7c3.5,4.4,2.7,10.8-1.7,14.3S505.6,358.2,502.1,353.8z"/>
		<path id="Color10_1_" style="opacity:0.2;enable-background:new    ;" d="M485.8,347.6c0,13.5,10.9,24.4,24.4,24.4
			c13.5,0,24.4-10.9,24.4-24.4s-10.9-24.4-24.4-24.4S485.8,334.2,485.8,347.6z M527.4,347.6c0,9.5-7.7,17.3-17.3,17.3
			c-9.5,0-17.3-7.7-17.3-17.3s7.7-17.3,17.3-17.3C519.7,330.4,527.4,338.1,527.4,347.6z"/>
	</g>
	<g>
		<path style="fill:#494C51;" d="M593.4,473.8h-12v-3.1h-1v3.1h-12l0.3,0.7l6.6,15.3h5.1v1h1v-1h5.1L593.4,473.8z M575.9,488.9
			l-6-14h10.4v14H575.9z M581.4,488.9v-14h10.4l-6,14H581.4z"/>
		<path style="fill:#0AA3D2;" d="M556.4,447.3c0-16.2,10.9-29.3,24.4-29.3c-16.2,0-29.3,13.1-29.3,29.3c0,16.2,13.1,29.3,29.3,29.3
			C567.3,476.6,556.4,463.5,556.4,447.3z"/>
		<path style="fill:#0AA3D2;" d="M580.8,418c13.5,0,24.4,13.1,24.4,29.3c0,16.2-10.9,29.3-24.4,29.3c16.2,0,29.3-13.1,29.3-29.3
			C610.2,431.1,597,418,580.8,418z"/>
		<path style="fill:#F2D821;" d="M605.3,447.3c0-16.2-10.9-29.3-24.4-29.3c8.1,0,14.7,13.1,14.7,29.3c0,16.2-6.6,29.3-14.7,29.3
			C594.3,476.6,605.3,463.5,605.3,447.3z"/>
		<path style="fill:#0AA3D2;" d="M576,447.3c0-16.2,2.2-29.3,4.9-29.3c-8.1,0-14.7,13.1-14.7,29.3c0,16.2,6.6,29.3,14.7,29.3
			C578.1,476.6,576,463.5,576,447.3z"/>
		<path style="fill:#F2D821;" d="M566.2,447.3c0-16.2,6.6-29.3,14.7-29.3c-13.5,0-24.4,13.1-24.4,29.3c0,16.2,10.9,29.3,24.4,29.3
			C572.7,476.6,566.2,463.5,566.2,447.3z"/>
		<path style="fill:#F2D821;" d="M585.7,447.3c0-16.2-2.2-29.3-4.9-29.3s-4.9,13.1-4.9,29.3c0,16.2,2.2,29.3,4.9,29.3
			C583.5,476.6,585.7,463.5,585.7,447.3z"/>
		<path style="fill:#0AA3D2;" d="M595.5,447.3c0-16.2-6.6-29.3-14.7-29.3c2.7,0,4.9,13.1,4.9,29.3c0,16.2-2.2,29.3-4.9,29.3
			C588.9,476.6,595.5,463.5,595.5,447.3z"/>
		<polygon style="fill:#2C3E50;" points="570.8,487.9 591,487.9 586.2,503.1 575.5,503.1 		"/>
	</g>
	<g id="elements">
	</g>
	<g id="circle-arrow">
	</g>
	<g id="heart-holding">
	</g>
	<g id="message">
	</g>
	<g id="mail">
	</g>
	<g id="trophy">
	</g>
	<g id="home">
	</g>
	<g id="setting">
	</g>
	<g id="hot-airballoon">
	</g>
	<g id="cafe-cup">
	</g>
	<g id="laptop">
	</g>
	<g id="heart-like">
	</g>
	<g id="iphone">
	</g>
</g>
<g id="Layer_2">
	<ellipse id="Shade_24_" style="opacity:0.1;enable-background:new    ;" cx="157.2" cy="235.6" rx="39.4" ry="40"/>
	
		<ellipse id="Color2_3_" transform="matrix(0.2314 -0.9729 0.9729 0.2314 -107.5004 330.9765)" style="fill:#D1D1D1;" cx="155.7" cy="233.5" rx="37.9" ry="37.9"/>
	<path id="Shade_21_" style="opacity:0.1;enable-background:new    ;" d="M175.5,223.2l-41.9,17.4l10.3,28.9
		c3.7,1.2,7.7,1.9,11.8,1.9c14.4,0,26.9-8,33.3-19.8L175.5,223.2z"/>
	<path id="Color1_2_" style="fill:#FFFFFF;" d="M155.7,208.7c-13.7,0-24.8,11.1-24.8,24.8c0,9.3,5.1,17.4,12.7,21.6l-4,7.5
		c-0.7,1.2-0.2,2.8,1.1,3.4c1.2,0.7,2.8,0.2,3.4-1.1l4.2-7.9c2.3,0.7,4.8,1.1,7.4,1.1c13.7,0,24.8-11.1,24.8-24.8
		C180.5,219.8,169.4,208.7,155.7,208.7z"/>
	<g>
		<circle id="Color3_7_" style="fill:#664C1C;" cx="155.7" cy="233.5" r="21.3"/>
		<path id="Shade_20_" style="opacity:0.25;enable-background:new    ;" d="M174,236.2c-2.7,8.4-7,14.1-18.7,14.1
			s-19.7-6.8-19.7-17.9c0-11.1,8.3-20.1,20-20.1C167.3,212.2,177.5,225.6,174,236.2z"/>
		<path id="Shade_18_" style="opacity:0.1;fill:#FFFFFF;enable-background:new    ;" d="M170.1,222.5c2,6.3-5.9,6.8-14.7,9.6
			s-15.3,6.8-17.3,0.4c-2-6.3,3.6-13.7,12.4-16.5C159.4,213.2,168.2,216.1,170.1,222.5z"/>
		<path id="Color3_6_" style="fill:#664C1C;" d="M160.4,250.3c0,0.9-0.7,1.6-1.6,1.6c-0.9,0-1.6-0.7-1.6-1.6c0-0.9,0.7-1.6,1.6-1.6
			S160.4,249.4,160.4,250.3z"/>
		<path id="Color3_5_" style="fill:#664C1C;" d="M162.9,249.6c0,0.8-0.6,1.4-1.4,1.4c-0.8,0-1.4-0.6-1.4-1.4c0-0.8,0.6-1.4,1.4-1.4
			C162.2,248.2,162.9,248.8,162.9,249.6z"/>
		<path id="Color3_4_" style="fill:#664C1C;" d="M165.3,249.6c0,0.8-0.6,1.4-1.4,1.4c-0.8,0-1.4-0.6-1.4-1.4c0-0.8,0.6-1.4,1.4-1.4
			C164.6,248.2,165.3,248.8,165.3,249.6z"/>
		<path id="Color3_3_" style="fill:#664C1C;" d="M166.3,248.7c0,0.5-0.4,1-1,1c-0.5,0-1-0.4-1-1c0-0.5,0.4-1,1-1
			C165.8,247.7,166.3,248.1,166.3,248.7z"/>
		<path id="Shade_17_" style="opacity:0.25;enable-background:new    ;" d="M158.8,249.5c-0.4,0-0.8,0.4-0.8,0.8
			c0,0.4,0.4,0.8,0.8,0.8c0.4,0,0.8-0.4,0.8-0.8C159.6,249.8,159.2,249.5,158.8,249.5z M161.4,248.7c-0.5,0-1,0.4-1,1
			c0,0.5,0.4,1,1,1c0.5,0,1-0.4,1-1C162.4,249.1,162,248.7,161.4,248.7z M163.8,248.7c-0.5,0-1,0.4-1,1c0,0.5,0.4,1,1,1
			c0.5,0,1-0.4,1-1C164.8,249.1,164.4,248.7,163.8,248.7z M165.8,248.1c-0.3,0-0.5,0.2-0.5,0.5s0.2,0.5,0.5,0.5s0.5-0.2,0.5-0.5
			S166.1,248.1,165.8,248.1z"/>
	</g>
</g>
<g id="Layer_3_1_">
	<g>
		<path id="Shade_8_" style="opacity:0.15;enable-background:new    ;" d="M314.8,335.5c-16-6.3-103.2-32.7-103.2-32.7
			c-1.2,0.7-3.3,8.6-4.2,11.3L158,473.6c-1.4,4.4,1.1,9,5.5,10.4l248.9,77.1c4.4,1.4,9-1.1,10.4-5.5l49.4-159.3
			c1.9-6.1-1.5-12.6-7.6-14.5L314.8,335.5z"/>
		<path id="Color3_2_" style="fill:#E5E5E5;" d="M408.4,550.1L159.5,473c-4.4-1.4-6.8-6-5.5-10.4l49.4-159.5c1.4-4.4,6-6.8,10.4-5.5
			l248.9,77.1c4.4,1.4,6.8,6,5.5,10.4l-49.4,159.5C417.4,549,412.8,551.5,408.4,550.1z"/>
		<path id="Color3_1_" style="fill:#E5E5E5;" d="M464.7,370.5l-250-77.5c-4.3-1.3-7-6-6-10.5L233,171.2c1.1-5.2,5.8-8.3,10.4-6.8
			l270.3,83.8c4.6,1.4,6.8,6.6,4.7,11.5l-42.9,105.5C473.8,369.5,469,371.8,464.7,370.5z"/>
		<path id="Color2_2_" style="fill:#313838;" d="M463,374.7l-249.3-77.3c-4.3-1.3-6.9-6-6-10.5l24.1-110.7c1.1-5.2,5.8-8.2,10.4-6.8
			L511.8,253c4.6,1.4,6.7,6.6,4.7,11.5l-42.7,104.9C472.1,373.6,467.3,376,463,374.7z"/>
		<path id="Shade_7_" style="opacity:0.4;enable-background:new    ;" d="M463,374.7l-249.3-77.3c-4.3-1.3-6.9-6-6-10.5l24.1-110.7
			c1.1-5.2,5.8-8.2,10.4-6.8L511.8,253c4.6,1.4,6.7,6.6,4.7,11.5l-42.7,104.9C472.1,373.6,467.3,376,463,374.7z"/>
		<path id="Color1_1_" style="fill:#1E3D4D;" d="M450.4,359.3l-217.6-67.4c-4.3-1.3-6.9-6.1-5.9-10.6l20-87.3
			c1.2-5.1,5.8-8.1,10.4-6.6l232,71.9c4.6,1.4,6.7,6.5,4.8,11.4l-32.9,83.4C459.5,358.3,454.7,360.7,450.4,359.3z"/>
		<path id="Shade_6_" style="opacity:0.2;enable-background:new    ;" d="M309.4,519.5l-51-15.8l0,0c1-3.1,4.2-4.8,7.3-3.9
			l39.8,12.3C308.7,513.1,310.4,516.4,309.4,519.5L309.4,519.5z"/>
		<path id="Shade_5_" style="opacity:0.1;enable-background:new    ;" d="M323.1,510.4l-70.7-21.9c-1.6-0.5-2.6-2.3-2.1-3.9
			l14.4-46.4c0.5-1.6,2.3-2.6,3.9-2.1l70.7,21.9c1.6,0.5,2.6,2.3,2.1,3.9L327,508.3C326.5,509.9,324.8,510.9,323.1,510.4z"/>
		<path id="Shade_4_" style="opacity:0.1;enable-background:new    ;" d="M321.4,507.1l-65.7-20.3c-1.6-0.5-2.6-2.3-2.1-3.9
			l12.8-41.4c0.5-1.6,2.3-2.6,3.9-2.1l65.7,20.3c1.6,0.5,2.6,2.3,2.1,3.9L325.3,505C324.8,506.7,323,507.6,321.4,507.1z"/>
		<path id="Color2_1_" style="fill:#313838;" d="M428.5,364.2l-180.3-55.9l-1.9,6l180.3,55.9L428.5,364.2z M214.4,341.3l4.5,1.4
			c2.8,0.9,5.8-0.7,6.6-3.5l1.4-4.5c0.9-2.8-0.7-5.8-3.5-6.6l-4.5-1.4c-2.8-0.9-5.8,0.7-6.6,3.5l-1.4,4.5
			C210.1,337.4,211.6,340.4,214.4,341.3z M233.3,347.1l4.5,1.4c2.8,0.9,5.8-0.7,6.6-3.5l1.4-4.5c0.9-2.8-0.7-5.8-3.5-6.6l-4.5-1.4
			c-2.8-0.9-5.8,0.7-6.6,3.5l-1.4,4.5C228.9,343.3,230.5,346.3,233.3,347.1z M256.6,338.3c-2.8-0.9-5.8,0.7-6.6,3.5l-1.4,4.5
			c-0.9,2.8,0.7,5.8,3.5,6.6l4.5,1.4c2.8,0.9,5.8-0.7,6.6-3.5l1.4-4.5c0.9-2.8-0.7-5.8-3.5-6.6L256.6,338.3z M282.1,356.7l1.4-4.5
			c0.9-2.8-0.7-5.8-3.5-6.6l-4.5-1.4c-2.8-0.9-5.8,0.7-6.6,3.5l-1.4,4.5c-0.9,2.8,0.7,5.8,3.5,6.6l4.5,1.4
			C278.3,361.1,281.2,359.5,282.1,356.7z M294.3,366c2.8,0.9,5.8-0.7,6.6-3.5l1.4-4.5c0.9-2.8-0.7-5.8-3.5-6.6l-4.5-1.4
			c-2.8-0.9-5.8,0.7-6.6,3.5l-1.4,4.5c-0.9,2.8,0.7,5.8,3.5,6.6L294.3,366z M313.1,371.9c2.8,0.9,5.8-0.7,6.6-3.5l1.4-4.5
			c0.9-2.8-0.7-5.8-3.5-6.6l-4.5-1.4c-2.8-0.9-5.8,0.7-6.6,3.5l-1.4,4.5c-0.9,2.8,0.7,5.8,3.5,6.6L313.1,371.9z M331.9,377.7
			c2.8,0.9,5.8-0.7,6.6-3.5l1.4-4.5c0.9-2.8-0.7-5.8-3.5-6.6l-4.5-1.4c-2.8-0.9-5.8,0.7-6.6,3.5l-1.4,4.5c-0.9,2.8,0.7,5.8,3.5,6.6
			L331.9,377.7z M357.4,380l1.4-4.5c0.9-2.8-0.7-5.8-3.5-6.6l-4.5-1.4c-2.8-0.9-5.8,0.7-6.6,3.5l-1.4,4.5c-0.9,2.8,0.7,5.8,3.5,6.6
			l4.5,1.4C353.6,384.4,356.5,382.8,357.4,380z M376.2,385.9l1.4-4.5c0.9-2.8-0.7-5.8-3.5-6.6l-4.5-1.4c-2.8-0.9-5.8,0.7-6.6,3.5
			l-1.4,4.5c-0.9,2.8,0.7,5.8,3.5,6.6l4.5,1.4C372.4,390.2,375.3,388.7,376.2,385.9z M395,391.7l1.4-4.5c0.9-2.8-0.7-5.8-3.5-6.6
			l-4.5-1.4c-2.8-0.9-5.8,0.7-6.6,3.5l-1.4,4.5c-0.9,2.8,0.7,5.8,3.5,6.6l4.5,1.4C391.2,396.1,394.2,394.5,395,391.7z M413.9,397.5
			l1.4-4.5c0.9-2.8-0.7-5.8-3.5-6.6l-4.5-1.4c-2.8-0.9-5.8,0.7-6.6,3.5l-1.4,4.5c-0.9,2.8,0.7,5.8,3.5,6.6l4.5,1.4
			C410,401.9,413,400.3,413.9,397.5z M442.1,395.8l-16.1-5c-2.8-0.9-5.8,0.7-6.6,3.5l-1.4,4.5c-0.9,2.8,0.7,5.8,3.5,6.6l16.1,5
			c2.8,0.9,5.8-0.7,6.6-3.5l1.4-4.5C446.5,399.6,444.9,396.6,442.1,395.8z M208.7,359.8l16.1,5c2.8,0.9,5.8-0.7,6.6-3.5l1.4-4.5
			c0.9-2.8-0.7-5.8-3.5-6.6l-16.1-5c-2.8-0.9-5.8,0.7-6.6,3.5l-1.4,4.5C204.3,356,205.9,358.9,208.7,359.8z M250.2,367.1l1.4-4.5
			c0.9-2.8-0.7-5.8-3.5-6.6l-4.5-1.4c-2.8-0.9-5.8,0.7-6.6,3.5l-1.4,4.5c-0.9,2.8,0.7,5.8,3.5,6.6l4.5,1.4
			C246.4,371.5,249.4,369.9,250.2,367.1z M269.1,373l1.4-4.5c0.9-2.8-0.7-5.8-3.5-6.6l-4.5-1.4c-2.8-0.9-5.8,0.7-6.6,3.5l-1.4,4.5
			c-0.9,2.8,0.7,5.8,3.5,6.6l4.5,1.4C265.2,377.3,268.2,375.8,269.1,373z M281.2,382.3c2.8,0.9,5.8-0.7,6.6-3.5l1.4-4.5
			c0.9-2.8-0.7-5.8-3.5-6.6l-4.5-1.4c-2.8-0.9-5.8,0.7-6.6,3.5l-1.4,4.5c-0.9,2.8,0.7,5.8,3.5,6.6L281.2,382.3z M300.1,388.1
			c2.8,0.9,5.8-0.7,6.6-3.5l1.4-4.5c0.9-2.8-0.7-5.8-3.5-6.6l-4.5-1.4c-2.8-0.9-5.8,0.7-6.6,3.5l-1.4,4.5c-0.9,2.8,0.7,5.8,3.5,6.6
			L300.1,388.1z M318.9,394c2.8,0.9,5.8-0.7,6.6-3.5l1.4-4.5c0.9-2.8-0.7-5.8-3.5-6.6l-4.5-1.4c-2.8-0.9-5.8,0.7-6.6,3.5l-1.4,4.5
			c-0.9,2.8,0.7,5.8,3.5,6.6L318.9,394z M337.7,399.8c2.8,0.9,5.8-0.7,6.6-3.5l1.4-4.5c0.9-2.8-0.7-5.8-3.5-6.6l-4.5-1.4
			c-2.8-0.9-5.8,0.7-6.6,3.5l-1.4,4.5c-0.9,2.8,0.7,5.8,3.5,6.6L337.7,399.8z M352,404.2l4.5,1.4c2.8,0.9,5.8-0.7,6.6-3.5l1.4-4.5
			c0.9-2.8-0.7-5.8-3.5-6.6l-4.5-1.4c-2.8-0.9-5.8,0.7-6.6,3.5l-1.4,4.5C347.6,400.4,349.2,403.3,352,404.2z M370.8,410l4.5,1.4
			c2.8,0.9,5.8-0.7,6.6-3.5l1.4-4.5c0.9-2.8-0.7-5.8-3.5-6.6l-4.5-1.4c-2.8-0.9-5.8,0.7-6.6,3.5l-1.4,4.5
			C366.5,406.2,368,409.2,370.8,410z M389.6,415.9l4.5,1.4c2.8,0.9,5.8-0.7,6.6-3.5l1.4-4.5c0.9-2.8-0.7-5.8-3.5-6.6l-4.5-1.4
			c-2.8-0.9-5.8,0.7-6.6,3.5l-1.4,4.5C385.3,412,386.9,415,389.6,415.9z M408.5,421.7l4.5,1.4c2.8,0.9,5.8-0.7,6.6-3.5l1.4-4.5
			c0.9-2.8-0.7-5.8-3.5-6.6L413,407c-2.8-0.9-5.8,0.7-6.6,3.5L405,415C404.1,417.9,405.7,420.8,408.5,421.7z M436.4,414.3l-4.5-1.4
			c-2.8-0.9-5.8,0.7-6.6,3.5l-1.4,4.5c-0.9,2.8,0.7,5.8,3.5,6.6l4.5,1.4c2.8,0.9,5.8-0.7,6.6-3.5l1.4-4.5
			C440.8,418.1,439.2,415.2,436.4,414.3z M232.5,371.4l-25-7.7c-2.8-0.9-5.8,0.7-6.6,3.5l-1.4,4.5c-0.9,2.8,0.7,5.8,3.5,6.6l25,7.7
			c2.8,0.9,5.8-0.7,6.6-3.5l1.4-4.5C236.8,375.2,235.3,372.2,232.5,371.4z M251.3,377.2l-4.5-1.4c-2.8-0.9-5.8,0.7-6.6,3.5l-1.4,4.5
			c-0.9,2.8,0.7,5.8,3.5,6.6l4.5,1.4c2.8,0.9,5.8-0.7,6.6-3.5l1.4-4.5C255.7,381.1,254.1,378.1,251.3,377.2z M259,385.1l-1.4,4.5
			c-0.9,2.8,0.7,5.8,3.5,6.6l4.5,1.4c2.8,0.9,5.8-0.7,6.6-3.5l1.4-4.5c0.9-2.8-0.7-5.8-3.5-6.6l-4.5-1.4
			C262.8,380.8,259.8,382.3,259,385.1z M279.9,402.1l4.5,1.4c2.8,0.9,5.8-0.7,6.6-3.5l1.4-4.5c0.9-2.8-0.7-5.8-3.5-6.6l-4.5-1.4
			c-2.8-0.9-5.8,0.7-6.6,3.5l-1.4,4.5C275.5,398.3,277.1,401.3,279.9,402.1z M298.7,408l4.5,1.4c2.8,0.9,5.8-0.7,6.6-3.5l1.4-4.5
			c0.9-2.8-0.7-5.8-3.5-6.6l-4.5-1.4c-2.8-0.9-5.8,0.7-6.6,3.5l-1.4,4.5C294.3,404.1,295.9,407.1,298.7,408z M317.5,413.8l4.5,1.4
			c2.8,0.9,5.8-0.7,6.6-3.5l1.4-4.5c0.9-2.8-0.7-5.8-3.5-6.6l-4.5-1.4c-2.8-0.9-5.8,0.7-6.6,3.5l-1.4,4.5
			C313.2,410,314.7,412.9,317.5,413.8z M347.5,417.6l1.4-4.5c0.9-2.8-0.7-5.8-3.5-6.6l-4.5-1.4c-2.8-0.9-5.8,0.7-6.6,3.5l-1.4,4.5
			c-0.9,2.8,0.7,5.8,3.5,6.6l4.5,1.4C343.7,421.9,346.7,420.4,347.5,417.6z M366.3,423.4l1.4-4.5c0.9-2.8-0.7-5.8-3.5-6.6l-4.5-1.4
			c-2.8-0.9-5.8,0.7-6.6,3.5l-1.4,4.5c-0.9,2.8,0.7,5.8,3.5,6.6l4.5,1.4C362.5,427.8,365.5,426.2,366.3,423.4z M385.2,429.2l1.4-4.5
			c0.9-2.8-0.7-5.8-3.5-6.6l-4.5-1.4c-2.8-0.9-5.8,0.7-6.6,3.5l-1.4,4.5c-0.9,2.8,0.7,5.8,3.5,6.6l4.5,1.4
			C381.3,433.6,384.3,432,385.2,429.2z M404,435.1l1.4-4.5c0.9-2.8-0.7-5.8-3.5-6.6l-4.5-1.4c-2.8-0.9-5.8,0.7-6.6,3.5l-1.4,4.5
			c-0.9,2.8,0.7,5.8,3.5,6.6l4.5,1.4C400.2,439.4,403.1,437.9,404,435.1z M430.6,432.8l-14.4-4.5c-2.8-0.9-5.8,0.7-6.6,3.5l-1.4,4.5
			c-0.9,2.8,0.7,5.8,3.5,6.6l14.4,4.5c2.8,0.9,5.8-0.7,6.6-3.5l1.4-4.5C435,436.6,433.4,433.7,430.6,432.8z M206.3,383.6l-4.5-1.4
			c-2.8-0.9-5.8,0.7-6.6,3.5l-1.4,4.5c-0.9,2.8,0.7,5.8,3.5,6.6l4.5,1.4c2.8,0.9,5.8-0.7,6.6-3.5l1.4-4.5
			C210.7,387.4,209.1,384.4,206.3,383.6z M225.1,389.4l-4.5-1.4c-2.8-0.9-5.8,0.7-6.6,3.5l-1.4,4.5c-0.9,2.8,0.7,5.8,3.5,6.6
			l4.5,1.4c2.8,0.9,5.8-0.7,6.6-3.5l1.4-4.5C229.5,393.2,227.9,390.3,225.1,389.4z M244,395.2l-4.5-1.4c-2.8-0.9-5.8,0.7-6.6,3.5
			l-1.4,4.5c-0.9,2.8,0.7,5.8,3.5,6.6l4.5,1.4c2.8,0.9,5.8-0.7,6.6-3.5l1.4-4.5C248.3,399.1,246.8,396.1,244,395.2z M332.4,422.6
			l-75.8-23.5c-1.9-0.6-3.9,0.5-4.5,2.4l-2.4,7.8c-0.6,1.9,0.5,3.9,2.4,4.5l75.8,23.5c1.9,0.6,3.9-0.5,4.5-2.4l2.4-7.8
			C335.3,425.2,334.3,423.2,332.4,422.6z M349.6,428l-4.5-1.4c-2.8-0.9-5.8,0.7-6.6,3.5l-1.4,4.5c-0.9,2.8,0.7,5.8,3.5,6.6l4.5,1.4
			c2.8,0.9,5.8-0.7,6.6-3.5l1.4-4.5C353.9,431.8,352.4,428.8,349.6,428z M368.4,433.8l-4.5-1.4c-2.8-0.9-5.8,0.7-6.6,3.5l-1.4,4.5
			c-0.9,2.8,0.7,5.8,3.5,6.6l4.5,1.4c2.8,0.9,5.8-0.7,6.6-3.5l1.4-4.5C372.8,437.6,371.2,434.7,368.4,433.8z M388.5,448.1l-11.6-3.6
			c-0.8-0.3-1.7,0.2-2,1l-1.3,4.3c-0.3,0.8,0.2,1.7,1,2l11.6,3.6c0.8,0.3,1.7-0.2,2-1l1.3-4.3C389.8,449.2,389.3,448.3,388.5,448.1z
			 M406.1,445.5l-4.5-1.4c-2.8-0.9-5.8,0.7-6.6,3.5l-1.4,4.5c-0.9,2.8,0.7,5.8,3.5,6.6l4.5,1.4c2.8,0.9,5.8-0.7,6.6-3.5l1.4-4.5
			C410.4,449.3,408.8,446.3,406.1,445.5z M426.2,459.7l-11.6-3.6c-0.8-0.3-1.7,0.2-2,1l-1.3,4.3c-0.3,0.8,0.2,1.7,1,2l11.6,3.6
			c0.8,0.3,1.7-0.2,2-1l1.3-4.3C427.5,460.9,427,460,426.2,459.7z"/>
		<path id="Shade_3_" style="opacity:0.15;enable-background:new    ;" d="M446.7,431.7l-250.1-77.5c-5.1-1.6-6.6-7-6-8.8l11.5-37.8
			c0.3-0.9,5.1-5.8,8.8-4.7L461,380.4c5.1,1.6,6.7,6.7,6.1,8.4l-11.7,38.5c-0.9,2.8-4.9,5.1-8.1,4.5
			C447.1,431.8,446.9,431.8,446.7,431.7z"/>
		
			<rect id="Shade_2_" x="333.5" y="250" transform="matrix(0.296 -0.9552 0.9552 0.296 -92.5041 563.2097)" style="opacity:0.15;enable-background:new    ;" width="4.7" height="188.8"/>
		<path id="Shade_1_" style="opacity:0.15;fill:#FFFFFF;enable-background:new    ;" d="M411.8,235.2l-106.7,79.1l16.2,5L428,240.2
			L411.8,235.2z M489.3,259.2l-52.5-16.3L330.1,322l78.9,24.5l78-57.8l7.2-18.1C496,265.7,493.9,260.6,489.3,259.2z"/>
	</g>
	<path style="fill:#E66B74;" d="M235.3,279.4h-26.6c-3,0-5.4,2.4-5.4,5.4v18.6c0,3,2.4,5.4,5.4,5.4h9.3l4,5.6l3.8-5.6h9.4
		c3,0,5.4-2.4,5.4-5.4v-18.6C240.7,281.8,238.3,279.4,235.3,279.4z"/>
	<path style="fill:#FFFFFF;" d="M229.7,288.2L229.7,288.2c-2.1-2.1-5.6-2.1-7.7,0l0,0l-0.1-0.1c-2.1-2.1-5.6-2.1-7.7,0l0,0
		c-2.1,2.1-2.1,5.6,0,7.7l7.8,7.8l0,0l0,0l7.7-7.7C231.8,293.8,231.8,290.3,229.7,288.2z"/>
	<g>
		<path style="opacity:0.13;enable-background:new    ;" d="M226.5,509.1l-39.8,38.3c-3.1,3-8.1,2.9-11-0.2l-79.1-83
			c-3-3.1-2.8-8,0.2-11l39.8-38.3c3.1-3,8.1-2.9,11,0.2l79.1,83C229.7,501.2,229.6,506.2,226.5,509.1z"/>
		<path style="fill:#DEE2E0;" d="M218.6,508.5l-38.5,37c-3,2.9-7.8,2.8-10.6-0.2l-75.9-79.7c-2.8-3-2.7-7.7,0.3-10.6l38.5-37
			c3-2.9,7.8-2.8,10.6,0.2l75.9,79.7C221.7,500.9,221.6,505.6,218.6,508.5z"/>
		<path style="opacity:0.49;fill:#B4D9DE;enable-background:new    ;" d="M124.5,439.1l-9.3,9c-0.5,0.5-1.2,0.4-1.7,0l0,0
			c-0.5-0.5-0.4-1.2,0-1.7l9.3-9c0.5-0.5,1.2-0.4,1.7,0l0,0C125,437.9,125,438.7,124.5,439.1z"/>
		<path style="opacity:0.49;fill:#B4D9DE;enable-background:new    ;" d="M199.8,516.9l-9.3,9c-0.5,0.5-1.2,0.4-1.7,0l0,0
			c-0.5-0.5-0.4-1.2,0-1.7l9.3-9c0.5-0.5,1.2-0.4,1.7,0l0,0C200.3,515.7,200.3,516.4,199.8,516.9z"/>
	</g>
	<g>
		<g>
			<polygon id="SVGID_5_" style="fill:#465C66;" points="209.3,494 166.7,534.9 102.1,467.1 144.8,426.2 			"/>
		</g>
		<g>
			<defs>
				<polygon id="SVGID_4_" points="209.3,494 166.7,534.9 102.1,467.1 144.8,426.2 				"/>
			</defs>
			<clipPath id="SVGID_6_">
				<use xlink:href="#SVGID_4_"  style="overflow:visible;"/>
			</clipPath>
			<polygon style="opacity:0.1;clip-path:url(#SVGID_6_);fill:#FFFFFF;enable-background:new    ;" points="128.3,405.6 
				153.6,560.5 144,549.8 121.3,411.4 			"/>
		</g>
		<g>
			<defs>
				<polygon id="SVGID_7_" points="209.3,494 166.7,534.9 102.1,467.1 144.8,426.2 				"/>
			</defs>
			<clipPath id="SVGID_8_">
				<use xlink:href="#SVGID_7_"  style="overflow:visible;"/>
			</clipPath>
			<path style="opacity:0.1;clip-path:url(#SVGID_8_);fill:#FFFFFF;enable-background:new    ;" d="M157,555
				c-0.8-2.1-21-139.7-21-139.7l44.3,46.5l11.2,55.9L157,555z"/>
		</g>
	</g>
</g>
</svg>
